<svg xmlns="http://www.w3.org/2000/svg" width="410" height="166" version="1.0" viewBox="0 0 307.5 124.5"><defs><clipPath id="a"><path d="M.707 29H91.84v70.492H.707Zm0 0"/></clipPath></defs><g clip-path="url(#a)"><path fill="#c0375d" d="M72.762 79.41c-.817-.488-1.793-.16-2.282.653-2.445 4.238-5.703 7.824-9.777 10.593a32.34 32.34 0 0 1-23.793 5.051c-5.543-.977-10.43-3.422-14.668-7.008l4.074-1.3c2.282-.653 4.563-1.633 6.68-2.446 2.774-1.14 5.379-2.445 8.149-3.91.328-.164.816-.328 1.14-.492 3.422-1.465 6.031-3.094 7.988-4.563-.164.98-.816 2.934-2.445 4.89-1.793 2.118-4.074 2.935-5.055 3.259 1.957 0 5.38-.16 9.29-1.793 3.585-1.63 6.03-3.91 7.171-5.215 0-1.465 0-5.703-2.605-9.777-2.934-4.563-7.172-6.192-8.64-6.68-1.79.812-4.887 2.281-7.657 5.375-3.586 3.914-4.727 8.148-5.055 10.105.493-.816 2.282-3.586 5.868-4.562 1.628-.488 3.097-.328 4.074-.164-2.117 1.469-4.399 3.261-6.68 5.05-2.445 1.633-4.89 3.098-7.496 4.403-1.957 1.14-4.074 2.117-6.195 2.933l-5.375 2.282c-1.141-1.14-2.121-2.281-2.934-3.75a32.355 32.355 0 0 1-5.055-23.793c1.633-8.309 6.196-15.645 13.204-20.371 12.382-8.473 29.167-7.168 39.925 3.261.653.653 1.63.653 2.282 0 .652-.652.652-1.629 0-2.28-11.899-11.411-30.477-12.876-44-3.587-7.66 5.215-12.875 13.2-14.668 22.489-.817 4.074-.817 8.148-.165 12.222-1.628 1.793-3.257 3.75-4.562 5.867-.812 1.305-1.465 2.77-1.953 4.399-.492 1.633-.817 3.261-.328 5.054.164.813.652 1.793 1.304 2.446.653.648 1.465 1.14 2.118 1.629 1.629.812 3.261 1.14 5.05 1.14 2.934.16 5.868-.328 8.801-.98 4.89 4.726 10.918 7.824 17.766 9.129 2.117.324 4.398.652 6.515.652a34.458 34.458 0 0 0 19.72-6.195c4.402-3.094 8.148-7.008 10.757-11.735.652-.812.324-1.789-.488-2.28m-66.98 8.313c-1.466-.489-2.446-1.305-2.77-2.606-.489-1.305-.324-2.773 0-4.238a23.376 23.376 0 0 1 1.465-4.402c.98-2.118 2.445-4.235 3.914-6.028.812 4.887 2.77 9.614 5.539 13.852.652.976 1.468 1.957 2.28 2.933-2.116.653-4.233.977-6.355 1.141-1.464 0-2.77-.164-4.074-.652m65.35-40.254-6.847 4.402c-3.746-2.281-7.82-2.61-10.918-.652-2.117 1.304-3.422 3.586-3.91 6.355 1.14.324 2.445.817 3.586 1.469 2.445 1.465 4.727 3.582 6.52 6.516 1.789 2.933 2.769 5.867 3.093 8.8.164 1.305 0 2.61-.164 3.91 2.61.653 5.215.493 7.5-.812 3.094-1.957 4.563-5.867 4.074-10.27l6.844-4.398c3.094-1.957 5.54-4.562 7.332-7.496 1.793-2.934 2.934-6.355 3.258-9.941-6.844-2.446-14.34-1.63-20.367 2.117m1.954 14.504c-2.606 1.632-5.867 1.468-7.168-.489-1.305-1.953-.164-4.886 2.605-6.68 2.61-1.628 5.868-1.468 7.172.489 1.14 1.957.16 5.05-2.61 6.68m0 0"/></g><path d="M111.033 27.856v4.047h-6.656v20.985h-5.032V31.903h-6.671v-4.047ZM124.982 32.731c1.508 0 2.847.328 4.015.985 1.176.656 2.094 1.625 2.75 2.906.657 1.281.985 2.82.985 4.61v11.656h-5.016v-10.97c0-1.581-.398-2.796-1.187-3.64-.793-.851-1.868-1.281-3.22-1.281-1.398 0-2.495.43-3.296 1.281-.793.844-1.188 2.059-1.188 3.64v10.97h-5.03V26.356h5.03v9.141c.645-.863 1.504-1.54 2.579-2.031 1.07-.489 2.265-.735 3.578-.735M155.067 42.528c0 .719-.046 1.367-.14 1.938H140.41c.113 1.43.613 2.547 1.5 3.36.883.812 1.973 1.218 3.266 1.218 1.863 0 3.191-.797 3.984-2.39h5.406c-.574 1.905-1.671 3.48-3.296 4.718-1.625 1.23-3.622 1.844-5.985 1.844-1.918 0-3.637-.422-5.156-1.266-1.512-.851-2.695-2.055-3.547-3.61-.844-1.562-1.266-3.359-1.266-5.39 0-2.05.414-3.851 1.25-5.406.832-1.55 2.004-2.742 3.516-3.578 1.508-.844 3.242-1.266 5.203-1.266 1.883 0 3.57.406 5.063 1.219a8.54 8.54 0 0 1 3.484 3.469c.82 1.492 1.234 3.203 1.234 5.14m-5.187-1.437c-.031-1.29-.5-2.32-1.406-3.094-.907-.781-2.016-1.172-3.328-1.172-1.25 0-2.305.375-3.157 1.125-.843.75-1.36 1.797-1.547 3.14ZM103.19 70.594c2.655 0 4.972.527 6.952 1.578 1.989 1.054 3.524 2.53 4.61 4.437 1.082 1.899 1.625 4.086 1.625 6.563 0 2.468-.543 4.664-1.625 6.578-1.086 1.906-2.625 3.386-4.625 4.437-2 1.055-4.313 1.578-6.938 1.578h-9.437V70.594Zm-.391 19.859c2.312 0 4.113-.629 5.406-1.89 1.289-1.27 1.937-3.067 1.937-5.391 0-2.313-.648-4.114-1.937-5.407-1.293-1.289-3.094-1.937-5.406-1.937h-2.907v14.625ZM137.782 85.437c0 .574-.031 1.172-.094 1.797h-13.89c.101 1.242.504 2.188 1.203 2.844.707.656 1.578.984 2.61.984 1.53 0 2.593-.644 3.187-1.937h6.53a9.057 9.057 0 0 1-1.827 3.562c-.867 1.055-1.953 1.875-3.266 2.469-1.312.594-2.789.89-4.422.89-1.96 0-3.703-.413-5.234-1.25-1.531-.831-2.73-2.023-3.594-3.577-.855-1.563-1.281-3.38-1.281-5.454 0-2.082.422-3.898 1.265-5.453a8.84 8.84 0 0 1 3.579-3.578c1.53-.844 3.285-1.265 5.265-1.265 1.938 0 3.66.406 5.172 1.218a8.714 8.714 0 0 1 3.531 3.485c.844 1.5 1.266 3.257 1.266 5.265m-6.266-1.61c0-1.05-.359-1.89-1.078-2.515-.719-.625-1.617-.937-2.687-.937-1.032 0-1.903.304-2.61.906-.699.594-1.132 1.445-1.297 2.547ZM149.114 90.031l4.343-14.281h6.532l-7.11 20.015h-7.562l-7.094-20.015h6.562Zm0 0"/><path fill="#c0375d" d="M170.78 96.015c-1.836 0-3.48-.296-4.938-.89-1.46-.602-2.625-1.489-3.5-2.656-.875-1.176-1.34-2.586-1.39-4.235h6.53c.095.938.415 1.652.97 2.14.55.493 1.27.735 2.156.735.906 0 1.617-.207 2.14-.625.532-.426.797-1.008.797-1.75 0-.613-.21-1.125-.625-1.531a4.906 4.906 0 0 0-1.547-1.016c-.605-.258-1.468-.554-2.593-.89-1.625-.5-2.953-1-3.985-1.5-1.031-.508-1.918-1.254-2.656-2.235-.742-.976-1.11-2.254-1.11-3.828 0-2.344.848-4.176 2.548-5.5 1.695-1.332 3.906-2 6.625-2 2.78 0 5.02.668 6.718 2 1.696 1.324 2.602 3.168 2.719 5.531h-6.625c-.055-.812-.355-1.453-.906-1.921-.555-.47-1.258-.704-2.11-.704-.742 0-1.34.2-1.796.594-.461.399-.688.965-.688 1.703 0 .813.379 1.45 1.14 1.907.77.449 1.97.937 3.594 1.468 1.625.555 2.942 1.078 3.954 1.578 1.02.5 1.898 1.23 2.64 2.188.75.96 1.125 2.187 1.125 3.687 0 1.438-.367 2.746-1.094 3.922-.73 1.168-1.789 2.102-3.171 2.797-1.387.688-3.028 1.031-4.922 1.031M193.982 90.562v5.203h-3.125c-2.22 0-3.954-.539-5.204-1.625-1.242-1.093-1.859-2.867-1.859-5.328v-7.968h-2.437V75.75h2.437v-4.875h6.14v4.875h4.016v5.094h-4.015v8.03c0 .606.14 1.04.422 1.298.289.261.77.39 1.437.39ZM195.268 85.719c0-2.051.383-3.852 1.156-5.407.781-1.55 1.836-2.742 3.172-3.578 1.344-.844 2.844-1.265 4.5-1.265 1.406 0 2.64.289 3.703.859 1.063.574 1.883 1.328 2.469 2.266V75.75h6.125v20.015h-6.125v-2.828c-.606.93-1.438 1.68-2.5 2.25-1.063.574-2.297.86-3.703.86-1.637 0-3.125-.422-4.47-1.266-1.335-.852-2.39-2.062-3.171-3.625-.773-1.562-1.156-3.375-1.156-5.437m15 .046c0-1.53-.43-2.738-1.281-3.625-.844-.882-1.875-1.328-3.094-1.328-1.219 0-2.258.438-3.11 1.313-.843.875-1.265 2.074-1.265 3.594 0 1.53.422 2.746 1.265 3.64.852.899 1.891 1.344 3.11 1.344 1.219 0 2.25-.438 3.094-1.313.851-.882 1.28-2.093 1.28-3.625M226.077 79.094c.719-1.102 1.613-1.97 2.688-2.594 1.07-.633 2.265-.953 3.578-.953v6.484h-1.688c-1.523 0-2.668.328-3.437.984-.762.657-1.141 1.813-1.141 3.47v9.28h-6.14V75.75h6.14ZM245.543 90.562v5.203h-3.125c-2.22 0-3.953-.539-5.203-1.625-1.243-1.093-1.86-2.867-1.86-5.328v-7.968h-2.437V75.75h2.437v-4.875h6.14v4.875h4.016v5.094h-4.015v8.03c0 .606.14 1.04.422 1.298.289.261.77.39 1.437.39ZM266.907 85.437c0 .574-.031 1.172-.094 1.797h-13.89c.101 1.242.503 2.188 1.203 2.844.707.656 1.578.984 2.61.984 1.53 0 2.593-.644 3.187-1.937h6.53a9.057 9.057 0 0 1-1.827 3.562c-.868 1.055-1.953 1.875-3.266 2.469-1.312.594-2.789.89-4.422.89-1.96 0-3.703-.413-5.234-1.25-1.531-.831-2.73-2.023-3.594-3.577-.855-1.563-1.281-3.38-1.281-5.454 0-2.082.422-3.898 1.265-5.453a8.84 8.84 0 0 1 3.579-3.578c1.53-.844 3.285-1.265 5.265-1.265 1.938 0 3.66.406 5.172 1.218a8.714 8.714 0 0 1 3.531 3.485c.844 1.5 1.266 3.257 1.266 5.265m-6.266-1.61c0-1.05-.36-1.89-1.078-2.515-.719-.625-1.617-.937-2.687-.937-1.032 0-1.903.304-2.61.906-.699.594-1.133 1.445-1.297 2.547ZM275.38 79.094c.718-1.102 1.612-1.97 2.687-2.594 1.07-.633 2.265-.953 3.578-.953v6.484h-1.688c-1.523 0-2.668.328-3.437.984-.762.657-1.14 1.813-1.14 3.47v9.28h-6.142V75.75h6.141Zm0 0"/></svg>