<svg width="97" height="75" viewBox="0 0 97 75" fill="none" xmlns="http://www.w3.org/2000/svg">
<path fill-rule="evenodd" clip-rule="evenodd" d="M73.9179 53.9721C74.438 53.1067 75.4781 52.7614 76.3435 53.2815C77.2088 53.8016 77.5541 54.8375 76.8635 55.7028C74.0927 60.7245 70.1111 64.8808 65.439 68.1675C59.2067 72.4943 51.9342 74.7452 44.4912 74.7452C42.2404 74.7452 39.8191 74.3999 37.5682 74.0546C30.3 72.6691 23.8929 69.3782 18.7007 64.3608C15.5845 65.0514 12.4684 65.5714 9.3522 65.3966C7.44669 65.3966 5.71596 65.0513 3.98522 64.186C3.78021 64.0316 3.55979 63.8772 3.333 63.7183C2.79586 63.3421 2.22299 62.9408 1.73442 62.4553C1.04383 61.7647 0.523761 60.7245 0.353245 59.8592C-0.166827 57.9536 0.178466 56.2229 0.698539 54.4922C1.21861 52.7614 1.9092 51.2055 2.77456 49.8201C4.16 47.5692 5.89074 45.4932 7.62147 43.5877C6.93088 39.2609 6.93088 34.9341 7.79625 30.603C9.69749 20.7386 15.2392 12.2555 23.3728 6.718C37.743 -3.15058 57.4759 -1.59036 70.1111 10.5248C70.806 11.2153 70.806 12.2555 70.1111 12.9503C69.4205 13.6409 68.3804 13.6409 67.6898 12.9503C56.2653 1.8711 38.4336 0.485662 25.2783 9.48462C17.8353 14.5063 12.9884 22.2946 11.2577 31.123C9.69749 39.9515 11.603 48.9547 16.6247 56.3977C17.4901 57.9536 18.5259 59.1686 19.7409 60.3792L25.4531 57.9536C27.6997 57.0883 29.9505 56.0524 32.0308 54.8375C34.7974 53.4563 37.3935 51.8961 39.9938 50.1653C42.4151 48.2598 44.8407 46.3586 47.0873 44.7984C46.0514 44.6279 44.4912 44.4531 42.7604 44.9731C38.9537 46.009 37.0482 48.9547 36.5281 49.8201C36.8777 47.7398 38.0883 43.2424 41.8951 39.0861C44.8407 35.7994 48.1274 34.2392 50.0329 33.3738C51.5889 33.8939 56.0905 35.6246 59.2067 40.4715C61.9775 44.7984 61.9775 49.3 61.9775 50.8559C60.7626 52.2414 58.1665 54.667 54.3598 56.3977C50.2034 58.1284 46.5715 58.2989 44.4912 58.2989C45.5313 57.9536 47.9526 57.0883 49.8582 54.8375C51.5889 52.7614 52.2837 50.6854 52.4543 49.6453C50.3782 51.2055 47.6073 52.9362 43.9711 54.4922C43.7985 54.5796 43.5821 54.6659 43.3658 54.7522C43.1494 54.8385 42.9331 54.9249 42.7604 55.0123C39.8191 56.5682 37.0482 57.9536 34.1068 59.1686C33.5861 59.3688 33.0562 59.5781 32.5193 59.7902C30.7354 60.495 28.8735 61.2306 27.0091 61.7647L22.6822 63.1458C27.1839 66.9569 32.3761 69.553 38.2588 70.5931C47.0873 72.1491 56.0905 70.2435 63.5335 65.2261C67.8603 62.2805 71.3218 58.4737 73.9179 53.9721ZM2.25449 59.3391C2.59979 60.7245 3.63993 61.5899 5.20015 62.11C6.58132 62.63 7.96676 62.8005 9.52698 62.8005C11.7778 62.63 14.0286 62.2805 16.2751 61.5899L16.2244 61.5289C15.376 60.5092 14.5309 59.4935 13.8538 58.4737C10.9124 53.9721 8.83213 48.9547 7.96676 43.7625C6.41081 45.6637 4.85059 47.9145 3.81471 50.1653C3.11986 51.7213 2.59979 53.2815 2.25449 54.8375C1.9092 56.3977 1.73442 57.9536 2.25449 59.3391Z" fill="#212529"/>
<path fill-rule="evenodd" clip-rule="evenodd" d="M74.6128 19.3532L67.3403 24.0253C63.3588 21.604 59.0319 21.2587 55.7452 23.3347C53.4944 24.7202 52.109 27.1415 51.5889 30.0872C52.7996 30.4324 54.185 30.9525 55.4 31.6431C57.9961 33.2033 60.4174 35.4499 62.3229 38.566C64.2241 41.6822 65.2643 44.7984 65.6096 47.9145C65.7822 49.2833 65.6137 50.6521 65.4452 52.0208L65.4391 52.0709C68.2057 52.7614 70.9765 52.5867 73.4021 51.2055C76.6888 49.1252 78.249 44.9731 77.729 40.2968L84.9972 35.6246C88.2881 33.5486 90.8842 30.7777 92.7897 27.6616C94.691 24.5454 95.9016 20.9092 96.2512 17.1024C88.9787 14.5063 81.0156 15.3717 74.6128 19.3532ZM69.071 34.2392C70.4565 36.3152 73.9179 36.49 76.6888 34.7593C79.6302 33.0285 80.6703 29.7376 79.4597 27.6616C78.0742 25.5855 74.6128 25.4108 71.8419 27.1415C68.9005 29.047 67.6899 32.1632 69.071 34.2392Z" fill="#212529"/>
</svg>
