<svg width="97" height="75" viewBox="0 0 97 75" fill="none" xmlns="http://www.w3.org/2000/svg">
<path fill-rule="evenodd" clip-rule="evenodd" d="M74.3602 53.9721C74.8803 53.1067 75.9205 52.7614 76.7858 53.2815C77.6512 53.8016 77.9965 54.8375 77.3059 55.7028C74.535 60.7245 70.5535 64.8808 65.8814 68.1675C59.649 72.4943 52.3765 74.7452 44.9335 74.7452C42.6827 74.7452 40.2614 74.3999 38.0106 74.0546C30.7424 72.6691 24.3353 69.3782 19.1431 64.3608C16.0269 65.0514 12.9107 65.5714 9.79455 65.3966C7.88904 65.3966 6.15831 65.0513 4.42758 64.186C4.22256 64.0316 4.00214 63.8772 3.77535 63.7183C3.23821 63.3421 2.66534 62.9408 2.17677 62.4553C1.48618 61.7647 0.966113 60.7245 0.795597 59.8592C0.275526 57.9536 0.620819 56.2229 1.14089 54.4922C1.66096 52.7614 2.35155 51.2055 3.21692 49.8201C4.60236 47.5692 6.33309 45.4932 8.06382 43.5877C7.37323 39.2609 7.37323 34.9341 8.2386 30.603C10.1398 20.7386 15.6816 12.2555 23.8152 6.718C38.1854 -3.15058 57.9183 -1.59036 70.5535 10.5248C71.2483 11.2153 71.2483 12.2555 70.5535 12.9503C69.8629 13.6409 68.8227 13.6409 68.1322 12.9503C56.7076 1.8711 38.876 0.485662 25.7207 9.48462C18.2777 14.5063 13.4308 22.2946 11.7001 31.123C10.1398 39.9515 12.0454 48.9547 17.067 56.3977C17.9324 57.9536 18.9683 59.1686 20.1832 60.3792L25.8955 57.9536C28.142 57.0883 30.3928 56.0524 32.4731 54.8375C35.2397 53.4563 37.8358 51.8961 40.4362 50.1653C42.8575 48.2598 45.2831 46.3586 47.5296 44.7984C46.4937 44.6279 44.9335 44.4531 43.2028 44.9731C39.396 46.009 37.4905 48.9547 36.9705 49.8201C37.32 47.7398 38.5307 43.2424 42.3374 39.0861C45.2831 35.7994 48.5698 34.2392 50.4753 33.3738C52.0312 33.8939 56.5328 35.6246 59.649 40.4715C62.4199 44.7984 62.4199 49.3 62.4199 50.8559C61.205 52.2414 58.6089 54.667 54.8021 56.3977C50.6458 58.1284 47.0138 58.2989 44.9335 58.2989C45.9737 57.9536 48.395 57.0883 50.3005 54.8375C52.0312 52.7614 52.7261 50.6854 52.8966 49.6453C50.8206 51.2055 48.0497 52.9362 44.4135 54.4922C44.2408 54.5796 44.0245 54.6659 43.8081 54.7522C43.5918 54.8385 43.3754 54.9249 43.2028 55.0123C40.2614 56.5682 37.4905 57.9536 34.5491 59.1686C34.0284 59.3688 33.4986 59.5781 32.9616 59.7902C31.1777 60.495 29.3158 61.2306 27.4514 61.7647L23.1246 63.1458C27.6262 66.9569 32.8184 69.553 38.7012 70.5931C47.5296 72.1491 56.5328 70.2435 63.9758 65.2261C68.3027 62.2805 71.7641 58.4737 74.3602 53.9721ZM2.69684 59.3391C3.04214 60.7245 4.08228 61.5899 5.6425 62.11C7.02368 62.63 8.40911 62.8005 9.96933 62.8005C12.2201 62.63 14.4709 62.2805 16.7175 61.5899L16.6667 61.5289C15.8184 60.5092 14.9732 59.4935 14.2962 58.4737C11.3548 53.9721 9.27448 48.9547 8.40911 43.7625C6.85316 45.6637 5.29294 47.9145 4.25706 50.1653C3.56221 51.7213 3.04214 53.2815 2.69684 54.8375C2.35155 56.3977 2.17677 57.9536 2.69684 59.3391Z" fill="#F8F9FA"/>
<path fill-rule="evenodd" clip-rule="evenodd" d="M75.0551 19.3532L67.7826 24.0253C63.8011 21.604 59.4743 21.2587 56.1876 23.3347C53.9368 24.7202 52.5513 27.1415 52.0313 30.0872C53.2419 30.4324 54.6274 30.9525 55.8423 31.6431C58.4384 33.2033 60.8597 35.4499 62.7652 38.566C64.6665 41.6822 65.7066 44.7984 66.0519 47.9145C66.2246 49.2833 66.0561 50.6521 65.8876 52.0208L65.8814 52.0709C68.648 52.7614 71.4189 52.5867 73.8445 51.2055C77.1312 49.1252 78.6914 44.9731 78.1713 40.2968L85.4395 35.6246C88.7305 33.5486 91.3266 30.7777 93.2321 27.6616C95.1333 24.5454 96.344 20.9092 96.6935 17.1024C89.4211 14.5063 81.458 15.3717 75.0551 19.3532ZM69.5134 34.2392C70.8988 36.3152 74.3603 36.49 77.1312 34.7593C80.0725 33.0285 81.1127 29.7376 79.902 27.6616C78.5166 25.5855 75.0551 25.4108 72.2843 27.1415C69.3429 29.047 68.1322 32.1632 69.5134 34.2392Z" fill="#F8F9FA"/>
</svg>
