<svg width="350" height="75" viewBox="0 0 350 75" fill="none" xmlns="http://www.w3.org/2000/svg">
<path fill-rule="evenodd" clip-rule="evenodd" d="M74.3602 53.9721C74.8803 53.1067 75.9205 52.7614 76.7858 53.2815C77.6512 53.8016 77.9965 54.8375 77.3059 55.7028C74.535 60.7245 70.5535 64.8808 65.8814 68.1675C59.649 72.4943 52.3765 74.7452 44.9335 74.7452C42.6827 74.7452 40.2614 74.3999 38.0106 74.0546C30.7424 72.6691 24.3353 69.3782 19.1431 64.3608C16.0269 65.0514 12.9107 65.5714 9.79455 65.3966C7.88904 65.3966 6.15831 65.0513 4.42758 64.186C4.22256 64.0316 4.00214 63.8772 3.77535 63.7183C3.23821 63.3421 2.66534 62.9408 2.17677 62.4553C1.48618 61.7647 0.966113 60.7245 0.795597 59.8592C0.275526 57.9536 0.620819 56.2229 1.14089 54.4922C1.66096 52.7614 2.35155 51.2055 3.21692 49.8201C4.60236 47.5692 6.33309 45.4932 8.06382 43.5877C7.37323 39.2609 7.37323 34.9341 8.2386 30.603C10.1398 20.7386 15.6816 12.2555 23.8152 6.718C38.1854 -3.15058 57.9183 -1.59036 70.5535 10.5248C71.2483 11.2153 71.2483 12.2555 70.5535 12.9503C69.8629 13.6409 68.8227 13.6409 68.1322 12.9503C56.7076 1.8711 38.876 0.485662 25.7207 9.48462C18.2777 14.5063 13.4308 22.2946 11.7001 31.123C10.1398 39.9515 12.0454 48.9547 17.067 56.3977C17.9324 57.9536 18.9683 59.1686 20.1832 60.3792L25.8955 57.9536C28.142 57.0883 30.3928 56.0524 32.4731 54.8375C35.2397 53.4563 37.8358 51.8961 40.4362 50.1653C42.8575 48.2598 45.2831 46.3586 47.5296 44.7984C46.4937 44.6279 44.9335 44.4531 43.2028 44.9731C39.396 46.009 37.4905 48.9547 36.9705 49.8201C37.32 47.7398 38.5307 43.2424 42.3374 39.0861C45.2831 35.7994 48.5698 34.2392 50.4753 33.3738C52.0312 33.8939 56.5328 35.6246 59.649 40.4715C62.4199 44.7984 62.4199 49.3 62.4199 50.8559C61.205 52.2414 58.6089 54.667 54.8021 56.3977C50.6458 58.1284 47.0138 58.2989 44.9335 58.2989C45.9737 57.9536 48.395 57.0883 50.3005 54.8375C52.0312 52.7614 52.7261 50.6854 52.8966 49.6453C50.8206 51.2055 48.0497 52.9362 44.4135 54.4922C44.2408 54.5796 44.0245 54.6659 43.8081 54.7522C43.5918 54.8385 43.3754 54.9249 43.2028 55.0123C40.2614 56.5682 37.4905 57.9536 34.5491 59.1686C34.0284 59.3688 33.4986 59.5781 32.9616 59.7902C31.1777 60.495 29.3158 61.2306 27.4514 61.7647L23.1246 63.1458C27.6262 66.9569 32.8184 69.553 38.7012 70.5931C47.5296 72.1491 56.5328 70.2435 63.9758 65.2261C68.3027 62.2805 71.7641 58.4737 74.3602 53.9721ZM2.69684 59.3391C3.04214 60.7245 4.08228 61.5899 5.6425 62.11C7.02368 62.63 8.40911 62.8005 9.96933 62.8005C12.2201 62.63 14.4709 62.2805 16.7175 61.5899L16.6667 61.5289C15.8184 60.5092 14.9732 59.4935 14.2962 58.4737C11.3548 53.9721 9.27448 48.9547 8.40911 43.7625C6.85316 45.6637 5.29294 47.9145 4.25706 50.1653C3.56221 51.7213 3.04214 53.2815 2.69684 54.8375C2.35155 56.3977 2.17677 57.9536 2.69684 59.3391Z" fill="#F8F9FA"/>
<path fill-rule="evenodd" clip-rule="evenodd" d="M75.0551 19.3532L67.7826 24.0253C63.8011 21.604 59.4743 21.2587 56.1876 23.3347C53.9368 24.7202 52.5513 27.1415 52.0313 30.0872C53.2419 30.4324 54.6274 30.9525 55.8423 31.6431C58.4384 33.2033 60.8597 35.4499 62.7652 38.566C64.6665 41.6822 65.7066 44.7984 66.0519 47.9145C66.2246 49.2833 66.0561 50.6521 65.8876 52.0208L65.8814 52.0709C68.648 52.7614 71.4189 52.5867 73.8445 51.2055C77.1312 49.1252 78.6914 44.9731 78.1713 40.2968L85.4395 35.6246C88.7305 33.5486 91.3266 30.7777 93.2321 27.6616C95.1333 24.5454 96.344 20.9092 96.6935 17.1024C89.4211 14.5063 81.458 15.3717 75.0551 19.3532ZM69.5134 34.2392C70.8988 36.3152 74.3603 36.49 77.1312 34.7593C80.0725 33.0285 81.1127 29.7376 79.902 27.6616C78.5166 25.5855 75.0551 25.4108 72.2843 27.1415C69.3429 29.047 68.1322 32.1632 69.5134 34.2392Z" fill="#F8F9FA"/>
<path d="M103.962 10.6412V9.09492H113.176V10.6412H109.461V21H107.671V10.6412H103.962ZM115.212 21V9.09492H117.008V14.2685H122.943V9.09492H124.745V21H122.943V15.809H117.008V21H115.212ZM127.361 21V9.09492H134.825V10.6412H129.157V14.2685H134.435V15.809H129.157V19.4537H134.895V21H127.361Z" fill="#F8F9FA"/>
<path d="M106.968 58.7141C106.879 58.0149 106.775 57.0107 106.656 55.7015C106.551 54.3774 106.425 52.8674 106.276 51.1714C106.127 49.4605 105.979 47.6753 105.83 45.8156C105.681 43.9411 105.532 42.0889 105.384 40.259C105.235 38.4291 105.101 36.7406 104.982 35.1934C104.878 33.6313 104.781 32.3072 104.692 31.2212C104.617 30.1203 104.565 29.3838 104.536 29.0119C105.146 28.9375 105.927 28.8557 106.879 28.7664C107.831 28.6772 108.85 28.6028 109.936 28.5433C111.022 28.4689 112.041 28.4317 112.993 28.4317C115.731 28.4317 118.051 28.7367 119.956 29.3466C121.86 29.9417 123.392 30.8715 124.553 32.1361C125.713 33.3858 126.554 34.9776 127.074 36.9117C127.595 38.8457 127.856 41.1293 127.856 43.7626C127.856 46.8124 127.446 49.3118 126.628 51.2607C125.825 53.1947 124.568 54.7047 122.857 55.7907C121.161 56.8619 118.996 57.6058 116.363 58.0223C113.745 58.4538 110.613 58.6844 106.968 58.7141ZM113.64 51.3276C115.411 51.2681 116.802 50.9631 117.813 50.4127C118.84 49.8622 119.562 49.0737 119.978 48.0472C120.41 47.0058 120.625 45.7412 120.625 44.2535C120.625 42.5873 120.417 41.0178 120 39.5449C119.599 38.0721 118.922 36.8819 117.97 35.9744C117.032 35.0669 115.753 34.6131 114.131 34.6131C113.864 34.6131 113.573 34.6131 113.261 34.6131C112.964 34.6131 112.696 34.628 112.458 34.6578C112.577 36.2794 112.696 38.0721 112.815 40.0359C112.949 41.9848 113.09 43.9411 113.239 45.9049C113.388 47.8538 113.521 49.6614 113.64 51.3276ZM153.346 54.0055C152.929 54.5113 152.409 55.0097 151.784 55.5006C151.159 55.9916 150.408 56.4379 149.53 56.8396C148.667 57.2264 147.678 57.5388 146.562 57.7768C145.446 58 144.197 58.1116 142.813 58.1116C140.567 58.1116 138.573 57.6876 136.832 56.8396C135.092 55.9767 133.73 54.7047 132.749 53.0236C131.782 51.3276 131.298 49.2225 131.298 46.7083C131.298 44.194 131.804 42.0071 132.816 40.1474C133.827 38.2729 135.241 36.8224 137.056 35.7959C138.871 34.7545 140.991 34.2338 143.415 34.2338C146.48 34.2338 148.89 35.0892 150.646 36.8001C152.416 38.4961 153.339 40.8467 153.413 43.8518C153.428 44.4023 153.42 44.9007 153.391 45.347C153.361 45.7933 153.301 46.2694 153.212 46.7752C152.989 46.7603 152.513 46.7455 151.784 46.7306C151.055 46.7157 150.229 46.7008 149.307 46.6859C148.399 46.6562 147.536 46.6339 146.718 46.619C145.915 46.6041 145.32 46.5967 144.933 46.5967C143.639 46.5967 142.382 46.6562 141.162 46.7752C139.957 46.8942 138.945 47.0207 138.127 47.1546C138.127 47.4224 138.142 47.6901 138.171 47.9579C138.216 48.2108 138.275 48.4563 138.35 48.6944C138.543 49.3043 138.878 49.825 139.354 50.2565C139.845 50.6879 140.425 51.0226 141.095 51.2607C141.779 51.4838 142.501 51.5954 143.259 51.5954C143.944 51.5954 144.568 51.5136 145.134 51.3499C145.714 51.1714 146.242 50.9408 146.718 50.6581C147.194 50.3755 147.626 50.0705 148.013 49.7432C148.414 49.401 148.786 49.0663 149.128 48.739C149.218 48.8134 149.448 49.0365 149.82 49.4085C150.192 49.7655 150.609 50.2118 151.07 50.7474C151.531 51.2681 151.97 51.8186 152.386 52.3988C152.803 52.979 153.123 53.5145 153.346 54.0055ZM138.372 42.9815C139.042 42.8774 139.867 42.7807 140.849 42.6914C141.831 42.6022 142.969 42.5575 144.263 42.5575C144.963 42.5575 145.58 42.565 146.116 42.5799C146.666 42.5947 147.053 42.6096 147.276 42.6245C147.276 42.3121 147.231 41.9699 147.142 41.598C147.023 41.0921 146.785 40.6086 146.428 40.1474C146.086 39.6863 145.64 39.3143 145.089 39.0317C144.554 38.749 143.906 38.6077 143.148 38.6077C142.196 38.6077 141.362 38.8159 140.648 39.2325C139.949 39.6491 139.406 40.1921 139.019 40.8615C138.632 41.531 138.417 42.2377 138.372 42.9815ZM170.11 33.6536C171.167 33.8321 172.156 34.0404 173.078 34.2784C174.001 34.5164 174.767 34.7247 175.377 34.9033C176.002 35.0818 176.381 35.2008 176.515 35.2603C176.217 36.4505 175.86 37.782 175.444 39.2548C175.042 40.7128 174.588 42.2451 174.082 43.8518C173.592 45.4437 173.071 47.0504 172.52 48.672C171.97 50.2788 171.405 51.8483 170.824 53.3807C170.259 54.8981 169.701 56.2966 169.151 57.576C168.362 57.7099 167.395 57.7768 166.25 57.7768C165.684 57.7768 165.134 57.7545 164.598 57.7099C164.078 57.6653 163.631 57.6206 163.259 57.576C162.486 55.9544 161.734 54.251 161.005 52.4657C160.277 50.6656 159.57 48.8134 158.886 46.9091C158.201 45.0048 157.539 43.0634 156.899 41.0847C156.26 39.0912 155.635 37.0976 155.025 35.1041C155.248 35.0595 155.613 34.9851 156.118 34.8809C156.639 34.7619 157.204 34.628 157.814 34.4793C158.439 34.3305 159.049 34.1817 159.644 34.0329C160.239 33.8693 160.73 33.7354 161.117 33.6313C161.34 34.5239 161.63 35.5802 161.987 36.8001C162.344 38.0051 162.731 39.2697 163.148 40.5938C163.579 41.9029 164.003 43.1749 164.42 44.4097C164.836 45.6297 165.208 46.7157 165.536 47.6678C165.878 48.62 166.138 49.3266 166.317 49.7878L166.049 49.8994C166.317 49.0514 166.592 48.1662 166.875 47.2438C167.157 46.3066 167.44 45.3247 167.723 44.2982C168.005 43.2568 168.28 42.1707 168.548 41.0401C168.831 39.9094 169.099 38.7267 169.352 37.4919C169.619 36.2571 169.872 34.9776 170.11 33.6536ZM203.563 58.3571C202.447 58.3571 201.309 58.2232 200.148 57.9554C199.003 57.6876 197.887 57.2933 196.801 56.7726C195.73 56.2519 194.748 55.6122 193.855 54.8535C192.963 54.0799 192.211 53.1947 191.601 52.1979C191.691 52.0492 191.929 51.7962 192.315 51.4392C192.702 51.0673 193.149 50.6656 193.654 50.2341C194.16 49.7878 194.659 49.3787 195.15 49.0068C195.655 48.6348 196.072 48.3671 196.399 48.2034C196.875 48.7539 197.381 49.3043 197.917 49.8548C198.467 50.4052 199.047 50.9036 199.657 51.3499C200.282 51.7814 200.952 52.131 201.666 52.3988C202.38 52.6666 203.139 52.8004 203.942 52.8004C204.864 52.8004 205.593 52.6294 206.129 52.2872C206.679 51.945 207.074 51.5136 207.312 50.9929C207.55 50.4573 207.669 49.9143 207.669 49.3638C207.669 48.9175 207.557 48.4935 207.334 48.0918C207.111 47.6901 206.776 47.3108 206.33 46.9537C205.883 46.5818 205.326 46.2248 204.656 45.8826C204.001 45.5255 203.228 45.1908 202.335 44.8784C200.55 44.194 198.936 43.4725 197.493 42.7137C196.05 41.9401 194.897 41.0103 194.034 39.9243C193.186 38.8383 192.762 37.477 192.762 35.8405C192.762 34.0999 193.245 32.6419 194.212 31.4666C195.179 30.2913 196.459 29.4062 198.051 28.8111C199.642 28.2011 201.353 27.8961 203.183 27.8961C204.567 27.8961 205.906 28.0523 207.2 28.3648C208.509 28.6623 209.729 29.116 210.86 29.726C211.99 30.336 212.965 31.1021 213.783 32.0245C213.56 32.3518 213.21 32.7907 212.734 33.3412C212.258 33.8916 211.752 34.4421 211.217 34.9925C210.681 35.543 210.228 35.9818 209.856 36.3091C209.261 35.7289 208.598 35.2082 207.87 34.747C207.141 34.271 206.374 33.899 205.571 33.6313C204.768 33.3486 203.957 33.2073 203.139 33.2073C202.186 33.2073 201.383 33.4155 200.728 33.8321C200.074 34.2338 199.747 34.8437 199.747 35.662C199.747 36.0339 199.828 36.3687 199.992 36.6662C200.171 36.9637 200.416 37.2315 200.728 37.4696C201.041 37.7076 201.413 37.9307 201.844 38.139C202.276 38.3324 202.759 38.5184 203.295 38.6969C204.812 39.2027 206.255 39.7309 207.624 40.2813C209.008 40.8318 210.228 41.4715 211.284 42.2005C212.355 42.9146 213.196 43.7923 213.805 44.8337C214.415 45.8751 214.72 47.1471 214.72 48.6497C214.72 50.0631 214.445 51.3648 213.895 52.555C213.344 53.7303 212.571 54.7568 211.574 55.6345C210.592 56.4974 209.417 57.1669 208.048 57.643C206.694 58.119 205.199 58.3571 203.563 58.3571ZM235.26 55.0766C234.977 55.6271 234.531 56.2147 233.921 56.8396C233.326 57.4495 232.545 57.9702 231.578 58.4017C230.626 58.848 229.465 59.0712 228.097 59.0712C226.296 59.0712 224.824 58.6918 223.678 57.9331C222.547 57.1743 221.707 56.1627 221.156 54.8981C220.621 53.6336 220.353 52.25 220.353 50.7474C220.353 49.9292 220.36 49.0588 220.375 48.1365C220.405 47.1992 220.435 46.2768 220.465 45.3693C220.494 44.4469 220.524 43.5766 220.554 42.7584C220.599 41.9253 220.636 41.1963 220.665 40.5714C220.71 39.9466 220.74 39.4631 220.755 39.1209C219.579 39.2399 218.493 39.3738 217.497 39.5226C216.5 39.6565 215.808 39.7681 215.421 39.8573C215.273 39.0242 215.161 38.1762 215.087 37.3133C215.012 36.4505 214.953 35.6992 214.908 35.0595C214.878 34.4197 214.863 34.0255 214.863 33.8767C215.726 33.7577 216.649 33.6536 217.631 33.5643C218.612 33.4602 219.646 33.3858 220.732 33.3412C220.718 32.9841 220.703 32.4262 220.688 31.6675C220.673 30.9087 220.651 30.2244 220.621 29.6144C220.606 29.064 220.576 28.5135 220.532 27.9631C220.487 27.3977 220.45 26.944 220.42 26.6018L227.025 26.0216C227.025 26.2001 227.025 26.6167 227.025 27.2713C227.04 27.9259 227.048 28.7144 227.048 29.6367C227.048 30.0979 227.055 30.6335 227.07 31.2435C227.085 31.8386 227.1 32.4262 227.115 33.0064C227.606 32.9767 228.178 32.9469 228.833 32.9172C229.488 32.8874 230.008 32.8651 230.395 32.8502C231.02 32.8205 231.585 32.8056 232.091 32.8056C232.597 32.7907 233.013 32.7833 233.341 32.7833C233.683 32.7833 233.914 32.7907 234.033 32.8056C234.122 33.5048 234.181 34.3974 234.211 35.4835C234.241 36.5546 234.256 37.5068 234.256 38.3399C234.107 38.325 233.623 38.3324 232.805 38.3622C231.987 38.3771 231.184 38.4068 230.395 38.4514C229.845 38.4663 229.235 38.4961 228.565 38.5407C227.896 38.5853 227.368 38.63 226.981 38.6746C226.966 38.987 226.944 39.4185 226.914 39.9689C226.899 40.5045 226.877 41.1145 226.847 41.7988C226.832 42.4683 226.81 43.1675 226.78 43.8965C226.765 44.6106 226.75 45.3024 226.735 45.9718C226.72 46.6413 226.713 47.2364 226.713 47.7571C226.713 48.739 226.758 49.6242 226.847 50.4127C226.951 51.1863 227.167 51.8037 227.494 52.2649C227.836 52.7112 228.357 52.9343 229.056 52.9343C229.517 52.9343 229.912 52.8004 230.239 52.5327C230.566 52.2649 230.834 51.9524 231.042 51.5954C231.265 51.2235 231.459 50.8962 231.622 50.6135C231.816 50.8813 232.084 51.2383 232.426 51.6847C232.783 52.1161 233.155 52.5698 233.542 53.0459C233.943 53.522 234.3 53.946 234.613 54.3179C234.94 54.6898 235.156 54.9428 235.26 55.0766ZM246.904 58.3794C245.074 58.3794 243.4 58.1339 241.883 57.643C240.365 57.1371 239.153 56.3263 238.245 55.2105C237.353 54.0799 236.906 52.5847 236.906 50.7251C236.906 48.8654 237.427 47.3703 238.469 46.2396C239.525 45.0941 240.908 44.2684 242.619 43.7626C244.345 43.2419 246.197 42.9815 248.176 42.9815C248.949 42.9815 249.693 43.041 250.407 43.1601C251.122 43.2791 251.746 43.4204 252.282 43.5841C252.832 43.7477 253.227 43.9039 253.465 44.0527C253.45 43.6659 253.368 43.2568 253.219 42.8253C253.085 42.3939 252.892 42.0294 252.639 41.7319C252.193 41.1219 251.583 40.6161 250.809 40.2144C250.05 39.7978 249.046 39.5895 247.796 39.5895C246.532 39.5895 245.416 39.8797 244.449 40.4599C243.482 41.0252 242.746 41.6649 242.24 42.379L236.795 38.8754C237.464 37.9233 238.364 37.0902 239.495 36.3761C240.641 35.662 241.935 35.1041 243.378 34.7024C244.836 34.3007 246.361 34.0999 247.953 34.0999C250.586 34.0999 252.721 34.5313 254.357 35.3942C255.994 36.2571 257.206 37.4621 257.995 39.0093C258.367 39.7532 258.672 40.5714 258.91 41.4641C259.148 42.3567 259.311 43.3832 259.401 44.5436C259.46 45.5404 259.505 46.4702 259.535 47.3331C259.564 48.196 259.594 49.0142 259.624 49.7878C259.654 50.9185 259.78 51.6549 260.003 51.9971C260.226 52.3393 260.546 52.5103 260.963 52.5103C261.35 52.5103 261.692 52.4062 261.989 52.1979C262.302 51.9748 262.503 51.6847 262.592 51.3276L264.913 55.7684C264.749 56.4528 264.288 57.0256 263.529 57.4867C262.77 57.9479 261.811 58.1785 260.65 58.1785C259.802 58.1785 258.999 58.0372 258.24 57.7545C257.481 57.457 256.857 57.0627 256.366 56.5718C255.875 56.066 255.585 55.4932 255.495 54.8535C255.257 55.4188 254.759 55.9767 254 56.5272C253.242 57.0627 252.267 57.5091 251.077 57.8661C249.887 58.2083 248.496 58.3794 246.904 58.3794ZM248.399 53.1352C249.098 53.1352 249.812 53.031 250.541 52.8228C251.285 52.5996 251.955 52.3244 252.55 51.9971C253.16 51.6698 253.628 51.335 253.956 50.9929C253.926 50.5317 253.896 50.0556 253.866 49.5647C253.851 49.0737 253.851 48.6572 253.866 48.315C253.539 48.1811 252.914 48.0398 251.992 47.891C251.084 47.7273 250.132 47.6455 249.135 47.6455C248.228 47.6455 247.38 47.7422 246.591 47.9356C245.803 48.129 245.156 48.4266 244.65 48.8283C244.159 49.2299 243.914 49.7506 243.914 50.3903C243.914 51.0747 244.1 51.6177 244.471 52.0194C244.843 52.4211 245.364 52.7112 246.034 52.8897C246.703 53.0534 247.491 53.1352 248.399 53.1352ZM272.431 38.0051C272.773 37.3357 273.294 36.6959 273.993 36.086C274.707 35.476 275.548 34.9776 276.515 34.5908C277.497 34.204 278.538 34.0106 279.639 34.0106C280.309 34.0106 280.986 34.0776 281.67 34.2115C282.354 34.3454 282.853 34.5239 283.165 34.747L281.782 41.8434C281.454 41.7095 281.03 41.5608 280.51 41.3971C279.989 41.2335 279.394 41.1516 278.724 41.1516C278.04 41.1516 277.37 41.2707 276.716 41.5087C276.076 41.7319 275.481 42.0517 274.931 42.4683C274.38 42.8848 273.897 43.3832 273.48 43.9634C273.629 44.8263 273.793 45.9272 273.971 47.2662C274.164 48.6051 274.343 49.9812 274.507 51.3946C274.67 52.8079 274.804 54.0948 274.908 55.2552C275.012 56.4156 275.065 57.2636 275.065 57.7992C274.023 57.9331 272.818 58.0223 271.449 58.067C270.081 58.1116 268.764 58.1265 267.5 58.1116C267.5 56.8619 267.462 55.4411 267.388 53.8493C267.328 52.2574 267.239 50.5986 267.12 48.8729C267.001 47.1323 266.852 45.4214 266.674 43.7403C266.51 42.0443 266.317 40.4747 266.094 39.0317C265.885 37.5886 265.662 36.3612 265.424 35.3496C266.138 35.1413 266.927 34.9479 267.79 34.7694C268.652 34.5908 269.434 34.4495 270.133 34.3454C270.832 34.2263 271.278 34.1594 271.472 34.1445C271.65 34.5611 271.851 35.1785 272.074 35.9967C272.297 36.8001 272.416 37.4696 272.431 38.0051ZM305.04 55.0766C304.757 55.6271 304.311 56.2147 303.701 56.8396C303.106 57.4495 302.325 57.9702 301.358 58.4017C300.406 58.848 299.245 59.0712 297.877 59.0712C296.077 59.0712 294.604 58.6918 293.458 57.9331C292.328 57.1743 291.487 56.1627 290.937 54.8981C290.401 53.6336 290.133 52.25 290.133 50.7474C290.133 49.9292 290.141 49.0588 290.156 48.1365C290.185 47.1992 290.215 46.2768 290.245 45.3693C290.275 44.4469 290.304 43.5766 290.334 42.7584C290.379 41.9253 290.416 41.1963 290.446 40.5714C290.49 39.9466 290.52 39.4631 290.535 39.1209C289.36 39.2399 288.274 39.3738 287.277 39.5226C286.28 39.6565 285.588 39.7681 285.201 39.8573C285.053 39.0242 284.941 38.1762 284.867 37.3133C284.792 36.4505 284.733 35.6992 284.688 35.0595C284.658 34.4197 284.644 34.0255 284.644 33.8767C285.506 33.7577 286.429 33.6536 287.411 33.5643C288.393 33.4602 289.427 33.3858 290.513 33.3412C290.498 32.9841 290.483 32.4262 290.468 31.6675C290.453 30.9087 290.431 30.2244 290.401 29.6144C290.386 29.064 290.356 28.5135 290.312 27.9631C290.267 27.3977 290.23 26.944 290.2 26.6018L296.806 26.0216C296.806 26.2001 296.806 26.6167 296.806 27.2713C296.82 27.9259 296.828 28.7144 296.828 29.6367C296.828 30.0979 296.835 30.6335 296.85 31.2435C296.865 31.8386 296.88 32.4262 296.895 33.0064C297.386 32.9767 297.959 32.9469 298.613 32.9172C299.268 32.8874 299.788 32.8651 300.175 32.8502C300.8 32.8205 301.365 32.8056 301.871 32.8056C302.377 32.7907 302.794 32.7833 303.121 32.7833C303.463 32.7833 303.694 32.7907 303.813 32.8056C303.902 33.5048 303.961 34.3974 303.991 35.4835C304.021 36.5546 304.036 37.5068 304.036 38.3399C303.887 38.325 303.404 38.3324 302.585 38.3622C301.767 38.3771 300.964 38.4068 300.175 38.4514C299.625 38.4663 299.015 38.4961 298.345 38.5407C297.676 38.5853 297.148 38.63 296.761 38.6746C296.746 38.987 296.724 39.4185 296.694 39.9689C296.679 40.5045 296.657 41.1145 296.627 41.7988C296.612 42.4683 296.59 43.1675 296.56 43.8965C296.545 44.6106 296.53 45.3024 296.515 45.9718C296.501 46.6413 296.493 47.2364 296.493 47.7571C296.493 48.739 296.538 49.6242 296.627 50.4127C296.731 51.1863 296.947 51.8037 297.274 52.2649C297.616 52.7112 298.137 52.9343 298.836 52.9343C299.298 52.9343 299.692 52.8004 300.019 52.5327C300.346 52.2649 300.614 51.9524 300.822 51.5954C301.046 51.2235 301.239 50.8962 301.403 50.6135C301.596 50.8813 301.864 51.2383 302.206 51.6847C302.563 52.1161 302.935 52.5698 303.322 53.0459C303.723 53.522 304.081 53.946 304.393 54.3179C304.72 54.6898 304.936 54.9428 305.04 55.0766ZM327.992 54.0055C327.576 54.5113 327.055 55.0097 326.43 55.5006C325.806 55.9916 325.054 56.4379 324.177 56.8396C323.314 57.2264 322.324 57.5388 321.209 57.7768C320.093 58 318.843 58.1116 317.459 58.1116C315.213 58.1116 313.219 57.6876 311.479 56.8396C309.738 55.9767 308.377 54.7047 307.395 53.0236C306.428 51.3276 305.945 49.2225 305.945 46.7083C305.945 44.194 306.45 42.0071 307.462 40.1474C308.474 38.2729 309.887 36.8224 311.702 35.7959C313.517 34.7545 315.637 34.2338 318.062 34.2338C321.127 34.2338 323.537 35.0892 325.292 36.8001C327.063 38.4961 327.985 40.8467 328.059 43.8518C328.074 44.4023 328.067 44.9007 328.037 45.347C328.007 45.7933 327.948 46.2694 327.859 46.7752C327.635 46.7603 327.159 46.7455 326.43 46.7306C325.701 46.7157 324.876 46.7008 323.953 46.6859C323.046 46.6562 322.183 46.6339 321.365 46.619C320.561 46.6041 319.966 46.5967 319.579 46.5967C318.285 46.5967 317.028 46.6562 315.808 46.7752C314.603 46.8942 313.591 47.0207 312.773 47.1546C312.773 47.4224 312.788 47.6901 312.818 47.9579C312.862 48.2108 312.922 48.4563 312.996 48.6944C313.19 49.3043 313.524 49.825 314.001 50.2565C314.491 50.6879 315.072 51.0226 315.741 51.2607C316.426 51.4838 317.147 51.5954 317.906 51.5954C318.59 51.5954 319.215 51.5136 319.78 51.3499C320.361 51.1714 320.889 50.9408 321.365 50.6581C321.841 50.3755 322.272 50.0705 322.659 49.7432C323.061 49.401 323.433 49.0663 323.775 48.739C323.864 48.8134 324.095 49.0365 324.467 49.4085C324.839 49.7655 325.255 50.2118 325.716 50.7474C326.177 51.2681 326.616 51.8186 327.033 52.3988C327.449 52.979 327.769 53.5145 327.992 54.0055ZM313.019 42.9815C313.688 42.8774 314.514 42.7807 315.496 42.6914C316.478 42.6022 317.616 42.5575 318.91 42.5575C319.609 42.5575 320.227 42.565 320.762 42.5799C321.313 42.5947 321.699 42.6096 321.923 42.6245C321.923 42.3121 321.878 41.9699 321.789 41.598C321.67 41.0921 321.432 40.6086 321.075 40.1474C320.732 39.6863 320.286 39.3143 319.736 39.0317C319.2 38.749 318.553 38.6077 317.794 38.6077C316.842 38.6077 316.009 38.8159 315.295 39.2325C314.596 39.6491 314.053 40.1921 313.666 40.8615C313.279 41.531 313.063 42.2377 313.019 42.9815ZM337.504 38.0051C337.846 37.3357 338.367 36.6959 339.066 36.086C339.78 35.476 340.621 34.9776 341.588 34.5908C342.57 34.204 343.611 34.0106 344.712 34.0106C345.382 34.0106 346.059 34.0776 346.743 34.2115C347.427 34.3454 347.926 34.5239 348.238 34.747L346.854 41.8434C346.527 41.7095 346.103 41.5608 345.582 41.3971C345.062 41.2335 344.467 41.1516 343.797 41.1516C343.113 41.1516 342.443 41.2707 341.789 41.5087C341.149 41.7319 340.554 42.0517 340.004 42.4683C339.453 42.8848 338.97 43.3832 338.553 43.9634C338.702 44.8263 338.865 45.9272 339.044 47.2662C339.237 48.6051 339.416 49.9812 339.58 51.3946C339.743 52.8079 339.877 54.0948 339.981 55.2552C340.085 56.4156 340.137 57.2636 340.137 57.7992C339.096 57.9331 337.891 58.0223 336.522 58.067C335.154 58.1116 333.837 58.1265 332.572 58.1116C332.572 56.8619 332.535 55.4411 332.461 53.8493C332.401 52.2574 332.312 50.5986 332.193 48.8729C332.074 47.1323 331.925 45.4214 331.747 43.7403C331.583 42.0443 331.39 40.4747 331.167 39.0317C330.958 37.5886 330.735 36.3612 330.497 35.3496C331.211 35.1413 332 34.9479 332.863 34.7694C333.725 34.5908 334.506 34.4495 335.206 34.3454C335.905 34.2263 336.351 34.1594 336.545 34.1445C336.723 34.5611 336.924 35.1785 337.147 35.9967C337.37 36.8001 337.489 37.4696 337.504 38.0051Z" fill="#F8F9FA"/>
</svg>
