<svg width="349" height="75" viewBox="0 0 349 75" fill="none" xmlns="http://www.w3.org/2000/svg">
<path fill-rule="evenodd" clip-rule="evenodd" d="M73.9179 53.9721C74.438 53.1067 75.4781 52.7614 76.3435 53.2815C77.2088 53.8016 77.5541 54.8375 76.8635 55.7028C74.0927 60.7245 70.1111 64.8808 65.439 68.1675C59.2067 72.4943 51.9342 74.7452 44.4912 74.7452C42.2404 74.7452 39.8191 74.3999 37.5682 74.0546C30.3 72.6691 23.8929 69.3782 18.7007 64.3608C15.5845 65.0514 12.4684 65.5714 9.3522 65.3966C7.44669 65.3966 5.71596 65.0513 3.98522 64.186C3.78021 64.0316 3.55979 63.8772 3.333 63.7183C2.79586 63.3421 2.22299 62.9408 1.73442 62.4553C1.04383 61.7647 0.523761 60.7245 0.353245 59.8592C-0.166827 57.9536 0.178466 56.2229 0.698539 54.4922C1.21861 52.7614 1.9092 51.2055 2.77456 49.8201C4.16 47.5692 5.89074 45.4932 7.62147 43.5877C6.93088 39.2609 6.93088 34.9341 7.79625 30.603C9.69749 20.7386 15.2392 12.2555 23.3728 6.718C37.743 -3.15058 57.4759 -1.59036 70.1111 10.5248C70.806 11.2153 70.806 12.2555 70.1111 12.9503C69.4205 13.6409 68.3804 13.6409 67.6898 12.9503C56.2653 1.8711 38.4336 0.485662 25.2783 9.48462C17.8353 14.5063 12.9884 22.2946 11.2577 31.123C9.69749 39.9515 11.603 48.9547 16.6247 56.3977C17.4901 57.9536 18.5259 59.1686 19.7409 60.3792L25.4531 57.9536C27.6997 57.0883 29.9505 56.0524 32.0308 54.8375C34.7974 53.4563 37.3935 51.8961 39.9938 50.1653C42.4151 48.2598 44.8407 46.3586 47.0873 44.7984C46.0514 44.6279 44.4912 44.4531 42.7604 44.9731C38.9537 46.009 37.0482 48.9547 36.5281 49.8201C36.8777 47.7398 38.0883 43.2424 41.8951 39.0861C44.8407 35.7994 48.1274 34.2392 50.0329 33.3738C51.5889 33.8939 56.0905 35.6246 59.2067 40.4715C61.9775 44.7984 61.9775 49.3 61.9775 50.8559C60.7626 52.2414 58.1665 54.667 54.3598 56.3977C50.2034 58.1284 46.5715 58.2989 44.4912 58.2989C45.5313 57.9536 47.9526 57.0883 49.8582 54.8375C51.5889 52.7614 52.2837 50.6854 52.4543 49.6453C50.3782 51.2055 47.6073 52.9362 43.9711 54.4922C43.7985 54.5796 43.5821 54.6659 43.3658 54.7522C43.1494 54.8385 42.9331 54.9249 42.7604 55.0123C39.8191 56.5682 37.0482 57.9536 34.1068 59.1686C33.5861 59.3688 33.0562 59.5781 32.5193 59.7902C30.7354 60.495 28.8735 61.2306 27.0091 61.7647L22.6822 63.1458C27.1839 66.9569 32.3761 69.553 38.2588 70.5931C47.0873 72.1491 56.0905 70.2435 63.5335 65.2261C67.8603 62.2805 71.3218 58.4737 73.9179 53.9721ZM2.25449 59.3391C2.59979 60.7245 3.63993 61.5899 5.20015 62.11C6.58132 62.63 7.96676 62.8005 9.52698 62.8005C11.7778 62.63 14.0286 62.2805 16.2751 61.5899L16.2244 61.5289C15.376 60.5092 14.5309 59.4935 13.8538 58.4737C10.9124 53.9721 8.83213 48.9547 7.96676 43.7625C6.41081 45.6637 4.85059 47.9145 3.81471 50.1653C3.11986 51.7213 2.59979 53.2815 2.25449 54.8375C1.9092 56.3977 1.73442 57.9536 2.25449 59.3391Z" fill="#212529"/>
<path fill-rule="evenodd" clip-rule="evenodd" d="M74.6128 19.3532L67.3403 24.0253C63.3588 21.604 59.0319 21.2587 55.7452 23.3347C53.4944 24.7202 52.109 27.1415 51.5889 30.0872C52.7996 30.4324 54.185 30.9525 55.4 31.6431C57.9961 33.2033 60.4174 35.4499 62.3229 38.566C64.2241 41.6822 65.2643 44.7984 65.6096 47.9145C65.7822 49.2833 65.6137 50.6521 65.4452 52.0208L65.4391 52.0709C68.2057 52.7614 70.9765 52.5867 73.4021 51.2055C76.6888 49.1252 78.249 44.9731 77.729 40.2968L84.9972 35.6246C88.2881 33.5486 90.8842 30.7777 92.7897 27.6616C94.691 24.5454 95.9016 20.9092 96.2512 17.1024C88.9787 14.5063 81.0156 15.3717 74.6128 19.3532ZM69.071 34.2392C70.4565 36.3152 73.9179 36.49 76.6888 34.7593C79.6302 33.0285 80.6703 29.7376 79.4597 27.6616C78.0742 25.5855 74.6128 25.4108 71.8419 27.1415C68.9005 29.047 67.6899 32.1632 69.071 34.2392Z" fill="#212529"/>
<path d="M103.52 10.6412V9.09492H112.733V10.6412H109.019V21H107.228V10.6412H103.52ZM114.769 21V9.09492H116.566V14.2685H122.501V9.09492H124.303V21H122.501V15.809H116.566V21H114.769ZM126.919 21V9.09492H134.383V10.6412H128.715V14.2685H133.993V15.809H128.715V19.4537H134.452V21H126.919Z" fill="#212529"/>
<path d="M106.526 58.7141C106.436 58.0149 106.332 57.0107 106.213 55.7015C106.109 54.3774 105.983 52.8674 105.834 51.1714C105.685 49.4605 105.536 47.6753 105.388 45.8156C105.239 43.9411 105.09 42.0889 104.941 40.259C104.792 38.4291 104.659 36.7406 104.54 35.1934C104.435 33.6313 104.339 32.3072 104.249 31.2212C104.175 30.1203 104.123 29.3838 104.093 29.0119C104.703 28.9375 105.484 28.8557 106.436 28.7664C107.389 28.6772 108.408 28.6028 109.494 28.5433C110.58 28.4689 111.599 28.4317 112.551 28.4317C115.288 28.4317 117.609 28.7367 119.513 29.3466C121.418 29.9417 122.95 30.8715 124.11 32.1361C125.271 33.3858 126.111 34.9776 126.632 36.9117C127.153 38.8457 127.413 41.1293 127.413 43.7626C127.413 46.8124 127.004 49.3118 126.186 51.2607C125.382 53.1947 124.125 54.7047 122.414 55.7907C120.718 56.8619 118.554 57.6058 115.921 58.0223C113.302 58.4538 110.171 58.6844 106.526 58.7141ZM113.198 51.3276C114.968 51.2681 116.359 50.9631 117.371 50.4127C118.398 49.8622 119.119 49.0737 119.536 48.0472C119.967 47.0058 120.183 45.7412 120.183 44.2535C120.183 42.5873 119.975 41.0178 119.558 39.5449C119.156 38.0721 118.479 36.8819 117.527 35.9744C116.59 35.0669 115.311 34.6131 113.689 34.6131C113.421 34.6131 113.131 34.6131 112.819 34.6131C112.521 34.6131 112.253 34.628 112.015 34.6578C112.134 36.2794 112.253 38.0721 112.372 40.0359C112.506 41.9848 112.648 43.9411 112.796 45.9049C112.945 47.8538 113.079 49.6614 113.198 51.3276ZM152.904 54.0055C152.487 54.5113 151.966 55.0097 151.342 55.5006C150.717 55.9916 149.965 56.4379 149.088 56.8396C148.225 57.2264 147.235 57.5388 146.12 57.7768C145.004 58 143.754 58.1116 142.371 58.1116C140.124 58.1116 138.131 57.6876 136.39 56.8396C134.649 55.9767 133.288 54.7047 132.306 53.0236C131.339 51.3276 130.856 49.2225 130.856 46.7083C130.856 44.194 131.362 42.0071 132.373 40.1474C133.385 38.2729 134.798 36.8224 136.613 35.7959C138.428 34.7545 140.548 34.2338 142.973 34.2338C146.038 34.2338 148.448 35.0892 150.203 36.8001C151.974 38.4961 152.896 40.8467 152.971 43.8518C152.985 44.4023 152.978 44.9007 152.948 45.347C152.919 45.7933 152.859 46.2694 152.77 46.7752C152.547 46.7603 152.071 46.7455 151.342 46.7306C150.613 46.7157 149.787 46.7008 148.864 46.6859C147.957 46.6562 147.094 46.6339 146.276 46.619C145.472 46.6041 144.877 46.5967 144.491 46.5967C143.196 46.5967 141.939 46.6562 140.719 46.7752C139.514 46.8942 138.503 47.0207 137.684 47.1546C137.684 47.4224 137.699 47.6901 137.729 47.9579C137.774 48.2108 137.833 48.4563 137.907 48.6944C138.101 49.3043 138.436 49.825 138.912 50.2565C139.403 50.6879 139.983 51.0226 140.652 51.2607C141.337 51.4838 142.058 51.5954 142.817 51.5954C143.501 51.5954 144.126 51.5136 144.691 51.3499C145.272 51.1714 145.8 50.9408 146.276 50.6581C146.752 50.3755 147.183 50.0705 147.57 49.7432C147.972 49.401 148.344 49.0663 148.686 48.739C148.775 48.8134 149.006 49.0365 149.378 49.4085C149.75 49.7655 150.166 50.2118 150.627 50.7474C151.089 51.2681 151.527 51.8186 151.944 52.3988C152.361 52.979 152.68 53.5145 152.904 54.0055ZM137.93 42.9815C138.599 42.8774 139.425 42.7807 140.407 42.6914C141.389 42.6022 142.527 42.5575 143.821 42.5575C144.52 42.5575 145.138 42.565 145.673 42.5799C146.224 42.5947 146.611 42.6096 146.834 42.6245C146.834 42.3121 146.789 41.9699 146.7 41.598C146.581 41.0921 146.343 40.6086 145.986 40.1474C145.644 39.6863 145.197 39.3143 144.647 39.0317C144.111 38.749 143.464 38.6077 142.705 38.6077C141.753 38.6077 140.92 38.8159 140.206 39.2325C139.507 39.6491 138.964 40.1921 138.577 40.8615C138.19 41.531 137.974 42.2377 137.93 42.9815ZM169.668 33.6536C170.724 33.8321 171.714 34.0404 172.636 34.2784C173.558 34.5164 174.324 34.7247 174.934 34.9033C175.559 35.0818 175.939 35.2008 176.073 35.2603C175.775 36.4505 175.418 37.782 175.001 39.2548C174.6 40.7128 174.146 42.2451 173.64 43.8518C173.149 45.4437 172.628 47.0504 172.078 48.672C171.528 50.2788 170.962 51.8483 170.382 53.3807C169.817 54.8981 169.259 56.2966 168.708 57.576C167.92 57.7099 166.953 57.7768 165.807 57.7768C165.242 57.7768 164.692 57.7545 164.156 57.7099C163.635 57.6653 163.189 57.6206 162.817 57.576C162.043 55.9544 161.292 54.251 160.563 52.4657C159.834 50.6656 159.127 48.8134 158.443 46.9091C157.759 45.0048 157.097 43.0634 156.457 41.0847C155.817 39.0912 155.192 37.0976 154.583 35.1041C154.806 35.0595 155.17 34.9851 155.676 34.8809C156.197 34.7619 156.762 34.628 157.372 34.4793C157.997 34.3305 158.607 34.1817 159.202 34.0329C159.797 33.8693 160.288 33.7354 160.675 33.6313C160.898 34.5239 161.188 35.5802 161.545 36.8001C161.902 38.0051 162.289 39.2697 162.705 40.5938C163.137 41.9029 163.561 43.1749 163.977 44.4097C164.394 45.6297 164.766 46.7157 165.093 47.6678C165.435 48.62 165.696 49.3266 165.874 49.7878L165.606 49.8994C165.874 49.0514 166.15 48.1662 166.432 47.2438C166.715 46.3066 166.998 45.3247 167.28 44.2982C167.563 43.2568 167.838 42.1707 168.106 41.0401C168.389 39.9094 168.656 38.7267 168.909 37.4919C169.177 36.2571 169.43 34.9776 169.668 33.6536ZM203.12 58.3571C202.004 58.3571 200.866 58.2232 199.706 57.9554C198.56 57.6876 197.445 57.2933 196.359 56.7726C195.287 56.2519 194.306 55.6122 193.413 54.8535C192.52 54.0799 191.769 53.1947 191.159 52.1979C191.248 52.0492 191.486 51.7962 191.873 51.4392C192.26 51.0673 192.706 50.6656 193.212 50.2341C193.718 49.7878 194.216 49.3787 194.707 49.0068C195.213 48.6348 195.63 48.3671 195.957 48.2034C196.433 48.7539 196.939 49.3043 197.474 49.8548C198.025 50.4052 198.605 50.9036 199.215 51.3499C199.84 51.7814 200.509 52.131 201.223 52.3988C201.937 52.6666 202.696 52.8004 203.5 52.8004C204.422 52.8004 205.151 52.6294 205.687 52.2872C206.237 51.945 206.631 51.5136 206.869 50.9929C207.107 50.4573 207.226 49.9143 207.226 49.3638C207.226 48.9175 207.115 48.4935 206.892 48.0918C206.668 47.6901 206.334 47.3108 205.887 46.9537C205.441 46.5818 204.883 46.2248 204.214 45.8826C203.559 45.5255 202.785 45.1908 201.893 44.8784C200.108 44.194 198.493 43.4725 197.05 42.7137C195.607 41.9401 194.454 41.0103 193.591 39.9243C192.743 38.8383 192.319 37.477 192.319 35.8405C192.319 34.0999 192.803 32.6419 193.77 31.4666C194.737 30.2913 196.016 29.4062 197.608 28.8111C199.2 28.2011 200.911 27.8961 202.741 27.8961C204.124 27.8961 205.463 28.0523 206.758 28.3648C208.067 28.6623 209.287 29.116 210.417 29.726C211.548 30.336 212.523 31.1021 213.341 32.0245C213.118 32.3518 212.768 32.7907 212.292 33.3412C211.816 33.8916 211.31 34.4421 210.775 34.9925C210.239 35.543 209.785 35.9818 209.413 36.3091C208.818 35.7289 208.156 35.2082 207.427 34.747C206.698 34.271 205.932 33.899 205.129 33.6313C204.325 33.3486 203.514 33.2073 202.696 33.2073C201.744 33.2073 200.941 33.4155 200.286 33.8321C199.632 34.2338 199.304 34.8437 199.304 35.662C199.304 36.0339 199.386 36.3687 199.55 36.6662C199.728 36.9637 199.974 37.2315 200.286 37.4696C200.599 37.7076 200.97 37.9307 201.402 38.139C201.833 38.3324 202.317 38.5184 202.852 38.6969C204.37 39.2027 205.813 39.7309 207.182 40.2813C208.565 40.8318 209.785 41.4715 210.841 42.2005C211.913 42.9146 212.753 43.7923 213.363 44.8337C213.973 45.8751 214.278 47.1471 214.278 48.6497C214.278 50.0631 214.003 51.3648 213.452 52.555C212.902 53.7303 212.128 54.7568 211.132 55.6345C210.15 56.4974 208.974 57.1669 207.606 57.643C206.252 58.119 204.757 58.3571 203.12 58.3571ZM234.818 55.0766C234.535 55.6271 234.089 56.2147 233.479 56.8396C232.884 57.4495 232.103 57.9702 231.135 58.4017C230.183 58.848 229.023 59.0712 227.654 59.0712C225.854 59.0712 224.381 58.6918 223.236 57.9331C222.105 57.1743 221.265 56.1627 220.714 54.8981C220.178 53.6336 219.911 52.25 219.911 50.7474C219.911 49.9292 219.918 49.0588 219.933 48.1365C219.963 47.1992 219.993 46.2768 220.022 45.3693C220.052 44.4469 220.082 43.5766 220.112 42.7584C220.156 41.9253 220.193 41.1963 220.223 40.5714C220.268 39.9466 220.298 39.4631 220.312 39.1209C219.137 39.2399 218.051 39.3738 217.054 39.5226C216.058 39.6565 215.366 39.7681 214.979 39.8573C214.83 39.0242 214.719 38.1762 214.644 37.3133C214.57 36.4505 214.51 35.6992 214.466 35.0595C214.436 34.4197 214.421 34.0255 214.421 33.8767C215.284 33.7577 216.206 33.6536 217.188 33.5643C218.17 33.4602 219.204 33.3858 220.29 33.3412C220.275 32.9841 220.26 32.4262 220.245 31.6675C220.231 30.9087 220.208 30.2244 220.178 29.6144C220.164 29.064 220.134 28.5135 220.089 27.9631C220.045 27.3977 220.007 26.944 219.978 26.6018L226.583 26.0216C226.583 26.2001 226.583 26.6167 226.583 27.2713C226.598 27.9259 226.605 28.7144 226.605 29.6367C226.605 30.0979 226.613 30.6335 226.628 31.2435C226.643 31.8386 226.657 32.4262 226.672 33.0064C227.163 32.9767 227.736 32.9469 228.391 32.9172C229.045 32.8874 229.566 32.8651 229.953 32.8502C230.578 32.8205 231.143 32.8056 231.649 32.8056C232.155 32.7907 232.571 32.7833 232.898 32.7833C233.241 32.7833 233.471 32.7907 233.59 32.8056C233.679 33.5048 233.739 34.3974 233.769 35.4835C233.799 36.5546 233.813 37.5068 233.813 38.3399C233.665 38.325 233.181 38.3324 232.363 38.3622C231.545 38.3771 230.741 38.4068 229.953 38.4514C229.402 38.4663 228.792 38.4961 228.123 38.5407C227.453 38.5853 226.925 38.63 226.538 38.6746C226.524 38.987 226.501 39.4185 226.472 39.9689C226.457 40.5045 226.434 41.1145 226.405 41.7988C226.39 42.4683 226.367 43.1675 226.338 43.8965C226.323 44.6106 226.308 45.3024 226.293 45.9718C226.278 46.6413 226.271 47.2364 226.271 47.7571C226.271 48.739 226.315 49.6242 226.405 50.4127C226.509 51.1863 226.724 51.8037 227.052 52.2649C227.394 52.7112 227.915 52.9343 228.614 52.9343C229.075 52.9343 229.469 52.8004 229.797 52.5327C230.124 52.2649 230.392 51.9524 230.6 51.5954C230.823 51.2235 231.016 50.8962 231.18 50.6135C231.374 50.8813 231.641 51.2383 231.983 51.6847C232.341 52.1161 232.712 52.5698 233.099 53.0459C233.501 53.522 233.858 53.946 234.17 54.3179C234.498 54.6898 234.713 54.9428 234.818 55.0766ZM246.461 58.3794C244.632 58.3794 242.958 58.1339 241.44 57.643C239.923 57.1371 238.711 56.3263 237.803 55.2105C236.91 54.0799 236.464 52.5847 236.464 50.7251C236.464 48.8654 236.985 47.3703 238.026 46.2396C239.082 45.0941 240.466 44.2684 242.177 43.7626C243.903 43.2419 245.755 42.9815 247.733 42.9815C248.507 42.9815 249.251 43.041 249.965 43.1601C250.679 43.2791 251.304 43.4204 251.84 43.5841C252.39 43.7477 252.784 43.9039 253.022 44.0527C253.007 43.6659 252.926 43.2568 252.777 42.8253C252.643 42.3939 252.45 42.0294 252.197 41.7319C251.75 41.1219 251.14 40.6161 250.367 40.2144C249.608 39.7978 248.604 39.5895 247.354 39.5895C246.09 39.5895 244.974 39.8797 244.007 40.4599C243.04 41.0252 242.303 41.6649 241.798 42.379L236.352 38.8754C237.022 37.9233 237.922 37.0902 239.053 36.3761C240.198 35.662 241.493 35.1041 242.936 34.7024C244.394 34.3007 245.918 34.0999 247.51 34.0999C250.144 34.0999 252.278 34.5313 253.915 35.3942C255.551 36.2571 256.764 37.4621 257.552 39.0093C257.924 39.7532 258.229 40.5714 258.467 41.4641C258.705 42.3567 258.869 43.3832 258.958 44.5436C259.018 45.5404 259.062 46.4702 259.092 47.3331C259.122 48.196 259.152 49.0142 259.181 49.7878C259.211 50.9185 259.338 51.6549 259.561 51.9971C259.784 52.3393 260.104 52.5103 260.52 52.5103C260.907 52.5103 261.249 52.4062 261.547 52.1979C261.859 51.9748 262.06 51.6847 262.149 51.3276L264.47 55.7684C264.307 56.4528 263.845 57.0256 263.087 57.4867C262.328 57.9479 261.368 58.1785 260.208 58.1785C259.36 58.1785 258.557 58.0372 257.798 57.7545C257.039 57.457 256.414 57.0627 255.923 56.5718C255.432 56.066 255.142 55.4932 255.053 54.8535C254.815 55.4188 254.317 55.9767 253.558 56.5272C252.799 57.0627 251.825 57.5091 250.635 57.8661C249.444 58.2083 248.053 58.3794 246.461 58.3794ZM247.957 53.1352C248.656 53.1352 249.37 53.031 250.099 52.8228C250.843 52.5996 251.512 52.3244 252.107 51.9971C252.717 51.6698 253.186 51.335 253.513 50.9929C253.484 50.5317 253.454 50.0556 253.424 49.5647C253.409 49.0737 253.409 48.6572 253.424 48.315C253.097 48.1811 252.472 48.0398 251.549 47.891C250.642 47.7273 249.69 47.6455 248.693 47.6455C247.786 47.6455 246.938 47.7422 246.149 47.9356C245.361 48.129 244.713 48.4266 244.208 48.8283C243.717 49.2299 243.471 49.7506 243.471 50.3903C243.471 51.0747 243.657 51.6177 244.029 52.0194C244.401 52.4211 244.922 52.7112 245.591 52.8897C246.261 53.0534 247.049 53.1352 247.957 53.1352ZM271.989 38.0051C272.331 37.3357 272.852 36.6959 273.551 36.086C274.265 35.476 275.106 34.9776 276.073 34.5908C277.055 34.204 278.096 34.0106 279.197 34.0106C279.866 34.0106 280.543 34.0776 281.228 34.2115C281.912 34.3454 282.41 34.5239 282.723 34.747L281.339 41.8434C281.012 41.7095 280.588 41.5608 280.067 41.3971C279.547 41.2335 278.951 41.1516 278.282 41.1516C277.598 41.1516 276.928 41.2707 276.274 41.5087C275.634 41.7319 275.039 42.0517 274.488 42.4683C273.938 42.8848 273.454 43.3832 273.038 43.9634C273.187 44.8263 273.35 45.9272 273.529 47.2662C273.722 48.6051 273.901 49.9812 274.064 51.3946C274.228 52.8079 274.362 54.0948 274.466 55.2552C274.57 56.4156 274.622 57.2636 274.622 57.7992C273.581 57.9331 272.376 58.0223 271.007 58.067C269.638 58.1116 268.322 58.1265 267.057 58.1116C267.057 56.8619 267.02 55.4411 266.946 53.8493C266.886 52.2574 266.797 50.5986 266.678 48.8729C266.559 47.1323 266.41 45.4214 266.231 43.7403C266.068 42.0443 265.874 40.4747 265.651 39.0317C265.443 37.5886 265.22 36.3612 264.982 35.3496C265.696 35.1413 266.484 34.9479 267.347 34.7694C268.21 34.5908 268.991 34.4495 269.69 34.3454C270.39 34.2263 270.836 34.1594 271.029 34.1445C271.208 34.5611 271.409 35.1785 271.632 35.9967C271.855 36.8001 271.974 37.4696 271.989 38.0051ZM304.598 55.0766C304.315 55.6271 303.869 56.2147 303.259 56.8396C302.664 57.4495 301.883 57.9702 300.916 58.4017C299.964 58.848 298.803 59.0712 297.434 59.0712C295.634 59.0712 294.161 58.6918 293.016 57.9331C291.885 57.1743 291.045 56.1627 290.494 54.8981C289.959 53.6336 289.691 52.25 289.691 50.7474C289.691 49.9292 289.698 49.0588 289.713 48.1365C289.743 47.1992 289.773 46.2768 289.802 45.3693C289.832 44.4469 289.862 43.5766 289.892 42.7584C289.936 41.9253 289.974 41.1963 290.003 40.5714C290.048 39.9466 290.078 39.4631 290.093 39.1209C288.917 39.2399 287.831 39.3738 286.834 39.5226C285.838 39.6565 285.146 39.7681 284.759 39.8573C284.61 39.0242 284.499 38.1762 284.424 37.3133C284.35 36.4505 284.29 35.6992 284.246 35.0595C284.216 34.4197 284.201 34.0255 284.201 33.8767C285.064 33.7577 285.986 33.6536 286.968 33.5643C287.95 33.4602 288.984 33.3858 290.07 33.3412C290.055 32.9841 290.04 32.4262 290.026 31.6675C290.011 30.9087 289.988 30.2244 289.959 29.6144C289.944 29.064 289.914 28.5135 289.869 27.9631C289.825 27.3977 289.788 26.944 289.758 26.6018L296.363 26.0216C296.363 26.2001 296.363 26.6167 296.363 27.2713C296.378 27.9259 296.386 28.7144 296.386 29.6367C296.386 30.0979 296.393 30.6335 296.408 31.2435C296.423 31.8386 296.438 32.4262 296.453 33.0064C296.943 32.9767 297.516 32.9469 298.171 32.9172C298.825 32.8874 299.346 32.8651 299.733 32.8502C300.358 32.8205 300.923 32.8056 301.429 32.8056C301.935 32.7907 302.351 32.7833 302.679 32.7833C303.021 32.7833 303.251 32.7907 303.37 32.8056C303.46 33.5048 303.519 34.3974 303.549 35.4835C303.579 36.5546 303.594 37.5068 303.594 38.3399C303.445 38.325 302.961 38.3324 302.143 38.3622C301.325 38.3771 300.521 38.4068 299.733 38.4514C299.182 38.4663 298.572 38.4961 297.903 38.5407C297.234 38.5853 296.705 38.63 296.319 38.6746C296.304 38.987 296.281 39.4185 296.252 39.9689C296.237 40.5045 296.214 41.1145 296.185 41.7988C296.17 42.4683 296.148 43.1675 296.118 43.8965C296.103 44.6106 296.088 45.3024 296.073 45.9718C296.058 46.6413 296.051 47.2364 296.051 47.7571C296.051 48.739 296.095 49.6242 296.185 50.4127C296.289 51.1863 296.505 51.8037 296.832 52.2649C297.174 52.7112 297.695 52.9343 298.394 52.9343C298.855 52.9343 299.249 52.8004 299.577 52.5327C299.904 52.2649 300.172 51.9524 300.38 51.5954C300.603 51.2235 300.797 50.8962 300.96 50.6135C301.154 50.8813 301.421 51.2383 301.764 51.6847C302.121 52.1161 302.493 52.5698 302.879 53.0459C303.281 53.522 303.638 53.946 303.951 54.3179C304.278 54.6898 304.494 54.9428 304.598 55.0766ZM327.55 54.0055C327.134 54.5113 326.613 55.0097 325.988 55.5006C325.363 55.9916 324.612 56.4379 323.734 56.8396C322.871 57.2264 321.882 57.5388 320.766 57.7768C319.65 58 318.401 58.1116 317.017 58.1116C314.771 58.1116 312.777 57.6876 311.037 56.8396C309.296 55.9767 307.935 54.7047 306.953 53.0236C305.986 51.3276 305.502 49.2225 305.502 46.7083C305.502 44.194 306.008 42.0071 307.02 40.1474C308.031 38.2729 309.445 36.8224 311.26 35.7959C313.075 34.7545 315.195 34.2338 317.62 34.2338C320.684 34.2338 323.094 35.0892 324.85 36.8001C326.62 38.4961 327.543 40.8467 327.617 43.8518C327.632 44.4023 327.625 44.9007 327.595 45.347C327.565 45.7933 327.506 46.2694 327.416 46.7752C327.193 46.7603 326.717 46.7455 325.988 46.7306C325.259 46.7157 324.433 46.7008 323.511 46.6859C322.603 46.6562 321.741 46.6339 320.922 46.619C320.119 46.6041 319.524 46.5967 319.137 46.5967C317.843 46.5967 316.586 46.6562 315.366 46.7752C314.161 46.8942 313.149 47.0207 312.331 47.1546C312.331 47.4224 312.346 47.6901 312.375 47.9579C312.42 48.2108 312.48 48.4563 312.554 48.6944C312.747 49.3043 313.082 49.825 313.558 50.2565C314.049 50.6879 314.629 51.0226 315.299 51.2607C315.983 51.4838 316.705 51.5954 317.463 51.5954C318.148 51.5954 318.773 51.5136 319.338 51.3499C319.918 51.1714 320.446 50.9408 320.922 50.6581C321.398 50.3755 321.83 50.0705 322.217 49.7432C322.618 49.401 322.99 49.0663 323.332 48.739C323.422 48.8134 323.652 49.0365 324.024 49.4085C324.396 49.7655 324.813 50.2118 325.274 50.7474C325.735 51.2681 326.174 51.8186 326.591 52.3988C327.007 52.979 327.327 53.5145 327.55 54.0055ZM312.576 42.9815C313.246 42.8774 314.071 42.7807 315.053 42.6914C316.035 42.6022 317.173 42.5575 318.468 42.5575C319.167 42.5575 319.784 42.565 320.32 42.5799C320.87 42.5947 321.257 42.6096 321.48 42.6245C321.48 42.3121 321.436 41.9699 321.346 41.598C321.227 41.0921 320.989 40.6086 320.632 40.1474C320.29 39.6863 319.844 39.3143 319.293 39.0317C318.758 38.749 318.111 38.6077 317.352 38.6077C316.4 38.6077 315.567 38.8159 314.853 39.2325C314.153 39.6491 313.61 40.1921 313.223 40.8615C312.837 41.531 312.621 42.2377 312.576 42.9815ZM337.062 38.0051C337.404 37.3357 337.925 36.6959 338.624 36.086C339.338 35.476 340.179 34.9776 341.146 34.5908C342.128 34.204 343.169 34.0106 344.27 34.0106C344.939 34.0106 345.616 34.0776 346.301 34.2115C346.985 34.3454 347.483 34.5239 347.796 34.747L346.412 41.8434C346.085 41.7095 345.661 41.5608 345.14 41.3971C344.619 41.2335 344.024 41.1516 343.355 41.1516C342.671 41.1516 342.001 41.2707 341.346 41.5087C340.707 41.7319 340.112 42.0517 339.561 42.4683C339.011 42.8848 338.527 43.3832 338.111 43.9634C338.259 44.8263 338.423 45.9272 338.602 47.2662C338.795 48.6051 338.974 49.9812 339.137 51.3946C339.301 52.8079 339.435 54.0948 339.539 55.2552C339.643 56.4156 339.695 57.2636 339.695 57.7992C338.654 57.9331 337.449 58.0223 336.08 58.067C334.711 58.1116 333.395 58.1265 332.13 58.1116C332.13 56.8619 332.093 55.4411 332.018 53.8493C331.959 52.2574 331.87 50.5986 331.751 48.8729C331.632 47.1323 331.483 45.4214 331.304 43.7403C331.141 42.0443 330.947 40.4747 330.724 39.0317C330.516 37.5886 330.293 36.3612 330.055 35.3496C330.769 35.1413 331.557 34.9479 332.42 34.7694C333.283 34.5908 334.064 34.4495 334.763 34.3454C335.463 34.2263 335.909 34.1594 336.102 34.1445C336.281 34.5611 336.482 35.1785 336.705 35.9967C336.928 36.8001 337.047 37.4696 337.062 38.0051Z" fill="#212529"/>
</svg>
